<?xml version="1.0" encoding="UTF-8" standalone="no"?>
<!DOCTYPE svg PUBLIC "-//W3C//DTD SVG 1.1//EN"
 "http://www.w3.org/Graphics/SVG/1.1/DTD/svg11.dtd">
<!-- Generated by graphviz version 2.40.1 (20161225.0304)
 -->
<!-- Title: controllers_diagram Pages: 1 -->
<svg width="374pt" height="229pt"
 viewBox="0.00 0.00 374.42 229.00" xmlns="http://www.w3.org/2000/svg" xmlns:xlink="http://www.w3.org/1999/xlink">
<g id="graph0" class="graph" transform="scale(1 1) rotate(0) translate(4 225)">
<title>controllers_diagram</title>
<polygon fill="transparent" stroke="transparent" points="-4,4 -4,-225 370.4233,-225 370.4233,4 -4,4"/>
<!-- _diagram_info -->
<g id="node1" class="node">
<title>_diagram_info</title>
<text text-anchor="start" x="168" y="-74.6" font-family="Times,serif" font-size="13.00" fill="#000000">Controllers diagram</text>
<text text-anchor="start" x="168" y="-61.6" font-family="Times,serif" font-size="13.00" fill="#000000">Date: Sep 11 2017 &#45; 13:26</text>
<text text-anchor="start" x="168" y="-48.6" font-family="Times,serif" font-size="13.00" fill="#000000">Migration version: 20170911162349</text>
<text text-anchor="start" x="168" y="-35.6" font-family="Times,serif" font-size="13.00" fill="#000000">Generated by RailRoady 1.5.3</text>
<text text-anchor="start" x="168" y="-22.6" font-family="Times,serif" font-size="13.00" fill="#000000">http://railroady.prestonlee.com</text>
</g>
<!-- ApplicationController -->
<g id="node2" class="node">
<title>ApplicationController</title>
<path fill="none" stroke="#000000" d="M172,-128.5C172,-128.5 287.6416,-128.5 287.6416,-128.5 293.6416,-128.5 299.6416,-134.5 299.6416,-140.5 299.6416,-140.5 299.6416,-208.5 299.6416,-208.5 299.6416,-214.5 293.6416,-220.5 287.6416,-220.5 287.6416,-220.5 172,-220.5 172,-220.5 166,-220.5 160,-214.5 160,-208.5 160,-208.5 160,-140.5 160,-140.5 160,-134.5 166,-128.5 172,-128.5"/>
<text text-anchor="middle" x="229.8208" y="-205.3" font-family="Times,serif" font-size="14.00" fill="#000000">ApplicationController</text>
<polyline fill="none" stroke="#000000" points="160,-198.5 299.6416,-198.5 "/>
<polyline fill="none" stroke="#000000" points="160,-174.5 299.6416,-174.5 "/>
<polyline fill="none" stroke="#000000" points="160,-150.5 299.6416,-150.5 "/>
<text text-anchor="start" x="168" y="-135.3" font-family="Times,serif" font-size="14.00" fill="#000000">_layout</text>
</g>
<!-- GendersController -->
<g id="node3" class="node">
<title>GendersController</title>
<path fill="none" stroke="#000000" d="M12,-.5C12,-.5 108.1934,-.5 108.1934,-.5 114.1934,-.5 120.1934,-6.5 120.1934,-12.5 120.1934,-12.5 120.1934,-190.5 120.1934,-190.5 120.1934,-196.5 114.1934,-202.5 108.1934,-202.5 108.1934,-202.5 12,-202.5 12,-202.5 6,-202.5 0,-196.5 0,-190.5 0,-190.5 0,-12.5 0,-12.5 0,-6.5 6,-.5 12,-.5"/>
<text text-anchor="middle" x="60.0967" y="-187.3" font-family="Times,serif" font-size="14.00" fill="#000000">GendersController</text>
<polyline fill="none" stroke="#000000" points="0,-180.5 120.1934,-180.5 "/>
<text text-anchor="start" x="8" y="-165.3" font-family="Times,serif" font-size="14.00" fill="#000000">index</text>
<text text-anchor="start" x="8" y="-151.3" font-family="Times,serif" font-size="14.00" fill="#000000">destroy</text>
<text text-anchor="start" x="8" y="-137.3" font-family="Times,serif" font-size="14.00" fill="#000000">edit</text>
<text text-anchor="start" x="8" y="-123.3" font-family="Times,serif" font-size="14.00" fill="#000000">create</text>
<text text-anchor="start" x="8" y="-109.3" font-family="Times,serif" font-size="14.00" fill="#000000">new</text>
<text text-anchor="start" x="8" y="-95.3" font-family="Times,serif" font-size="14.00" fill="#000000">show</text>
<text text-anchor="start" x="8" y="-81.3" font-family="Times,serif" font-size="14.00" fill="#000000">update</text>
<polyline fill="none" stroke="#000000" points="0,-74.5 120.1934,-74.5 "/>
<polyline fill="none" stroke="#000000" points="0,-50.5 120.1934,-50.5 "/>
<text text-anchor="start" x="8" y="-35.3" font-family="Times,serif" font-size="14.00" fill="#000000">_layout</text>
<text text-anchor="start" x="8" y="-21.3" font-family="Times,serif" font-size="14.00" fill="#000000">gender_params</text>
<text text-anchor="start" x="8" y="-7.3" font-family="Times,serif" font-size="14.00" fill="#000000">set_gender</text>
</g>
</g>
</svg>
