<?xml version="1.0" encoding="UTF-8" standalone="no"?>
<!DOCTYPE svg PUBLIC "-//W3C//DTD SVG 1.1//EN"
 "http://www.w3.org/Graphics/SVG/1.1/DTD/svg11.dtd">
<!-- Generated by graphviz version 2.40.1 (20161225.0304)
 -->
<!-- Title: models_diagram Pages: 1 -->
<svg width="693pt" height="153pt"
 viewBox="0.00 0.00 693.20 153.00" xmlns="http://www.w3.org/2000/svg" xmlns:xlink="http://www.w3.org/1999/xlink">
<g id="graph0" class="graph" transform="scale(1 1) rotate(0) translate(4 149)">
<title>models_diagram</title>
<polygon fill="transparent" stroke="transparent" points="-4,4 -4,-149 689.2001,-149 689.2001,4 -4,4"/>
<!-- _diagram_info -->
<g id="node1" class="node">
<title>_diagram_info</title>
<text text-anchor="start" x="8" y="-130.6" font-family="Times,serif" font-size="13.00" fill="#000000">Models diagram</text>
<text text-anchor="start" x="8" y="-117.6" font-family="Times,serif" font-size="13.00" fill="#000000">Date: Sep 11 2017 &#45; 13:26</text>
<text text-anchor="start" x="8" y="-104.6" font-family="Times,serif" font-size="13.00" fill="#000000">Migration version: 20170911162349</text>
<text text-anchor="start" x="8" y="-91.6" font-family="Times,serif" font-size="13.00" fill="#000000">Generated by RailRoady 1.5.3</text>
<text text-anchor="start" x="8" y="-78.6" font-family="Times,serif" font-size="13.00" fill="#000000">http://railroady.prestonlee.com</text>
</g>
<!-- ApplicationRecord -->
<g id="node2" class="node">
<title>ApplicationRecord</title>
<ellipse fill="none" stroke="#000000" cx="302.2117" cy="-108.5" rx="77.2916" ry="18"/>
<text text-anchor="middle" x="302.2117" y="-104.3" font-family="Times,serif" font-size="14.00" fill="#000000">ApplicationRecord</text>
</g>
<!-- FinalUser -->
<g id="node3" class="node">
<title>FinalUser</title>
<ellipse fill="none" stroke="#000000" cx="442.2117" cy="-108.5" rx="44.9682" ry="18"/>
<text text-anchor="middle" x="442.2117" y="-104.3" font-family="Times,serif" font-size="14.00" fill="#000000">FinalUser</text>
</g>
<!-- Gender -->
<g id="node4" class="node">
<title>Gender</title>
<ellipse fill="none" stroke="#000000" cx="541.2117" cy="-108.5" rx="36.2645" ry="18"/>
<text text-anchor="middle" x="541.2117" y="-104.3" font-family="Times,serif" font-size="14.00" fill="#000000">Gender</text>
</g>
<!-- Song -->
<g id="node5" class="node">
<title>Song</title>
<ellipse fill="none" stroke="#000000" cx="468.2117" cy="-18" rx="28.0822" ry="18"/>
<text text-anchor="middle" x="468.2117" y="-13.8" font-family="Times,serif" font-size="14.00" fill="#000000">Song</text>
</g>
<!-- Gender&#45;&gt;Song -->
<g id="edge1" class="edge">
<title>Gender&#45;&gt;Song</title>
<path fill="none" stroke="#9f914e" d="M522.2058,-84.9379C511.508,-71.6756 498.1841,-55.1577 487.4488,-41.8488"/>
<ellipse fill="none" stroke="#9f914e" cx="524.9696" cy="-88.3643" rx="4" ry="4"/>
<polygon fill="#9f914e" stroke="#9f914e" points="487.4241,-41.8181 484.6482,-31.2094 484.2849,-37.9264 481.1457,-34.0346 481.1457,-34.0346 481.1457,-34.0346 484.2849,-37.9264 477.6431,-36.8599 487.4241,-41.8181 487.4241,-41.8181"/>
</g>
<!-- User -->
<g id="node6" class="node">
<title>User</title>
<ellipse fill="none" stroke="#000000" cx="541.2117" cy="-18" rx="27" ry="18"/>
<text text-anchor="middle" x="541.2117" y="-13.8" font-family="Times,serif" font-size="14.00" fill="#000000">User</text>
</g>
<!-- Gender&#45;&gt;User -->
<g id="edge2" class="edge">
<title>Gender&#45;&gt;User</title>
<path fill="none" stroke="#73e29b" d="M534.924,-80.608C534.3063,-69.5548 534.3076,-56.873 534.9277,-45.8263"/>
<polygon fill="#73e29b" stroke="#73e29b" points="534.9272,-80.6506 531.2217,-90.9714 535.3176,-85.6354 535.7079,-90.6201 535.7079,-90.6201 535.7079,-90.6201 535.3176,-85.6354 540.1942,-90.2688 534.9272,-80.6506 534.9272,-80.6506"/>
<polygon fill="#73e29b" stroke="#73e29b" points="534.9287,-45.812 540.198,-36.1952 535.3203,-40.8274 535.7118,-35.8427 535.7118,-35.8427 535.7118,-35.8427 535.3203,-40.8274 531.2256,-35.4903 534.9287,-45.812 534.9287,-45.812"/>
</g>
<!-- User&#45;&gt;Gender -->
<g id="edge3" class="edge">
<title>User&#45;&gt;Gender</title>
<path fill="none" stroke="#d7135a" d="M547.3948,-44.1316C548.114,-55.5613 548.1488,-68.9851 547.4993,-80.608"/>
<ellipse fill="none" stroke="#d7135a" cx="547.0402" cy="-39.8292" rx="4" ry="4"/>
<polygon fill="#d7135a" stroke="#d7135a" points="547.4961,-80.6506 542.2291,-90.2688 547.1058,-85.6354 546.7154,-90.6201 546.7154,-90.6201 546.7154,-90.6201 547.1058,-85.6354 551.2017,-90.9714 547.4961,-80.6506 547.4961,-80.6506"/>
</g>
<!-- User&#45;&gt;User -->
<g id="edge4" class="edge">
<title>User&#45;&gt;User</title>
<path fill="none" stroke="#60bfd0" d="M567.8072,-34.8261C577.8824,-35.4643 586.2117,-29.8556 586.2117,-18 586.2117,-6.1444 577.8824,-.5357 567.8072,-1.1739"/>
<polygon fill="#60bfd0" stroke="#60bfd0" points="567.5216,-34.7539 558.9315,-27.9376 562.6745,-33.527 557.8273,-32.3001 557.8273,-32.3001 557.8273,-32.3001 562.6745,-33.527 556.7231,-36.6625 567.5216,-34.7539 567.5216,-34.7539"/>
<polygon fill="#60bfd0" stroke="#60bfd0" points="567.5216,-1.2461 556.7231,.6625 562.6745,-2.473 557.8273,-3.6999 557.8273,-3.6999 557.8273,-3.6999 562.6745,-2.473 558.9315,-8.0624 567.5216,-1.2461 567.5216,-1.2461"/>
</g>
<!-- UserSong -->
<g id="node7" class="node">
<title>UserSong</title>
<ellipse fill="none" stroke="#000000" cx="640.2117" cy="-108.5" rx="44.9768" ry="18"/>
<text text-anchor="middle" x="640.2117" y="-104.3" font-family="Times,serif" font-size="14.00" fill="#000000">UserSong</text>
</g>
</g>
</svg>
