<?xml version="1.0" encoding="UTF-8" standalone="no"?>
<!DOCTYPE svg PUBLIC "-//W3C//DTD SVG 1.1//EN"
 "http://www.w3.org/Graphics/SVG/1.1/DTD/svg11.dtd">
<!-- Generated by graphviz version 2.40.1 (20161225.0304)
 -->
<!-- Title: models_diagram Pages: 1 -->
<svg width="919pt" height="386pt"
 viewBox="0.00 0.00 919.07 386.00" xmlns="http://www.w3.org/2000/svg" xmlns:xlink="http://www.w3.org/1999/xlink">
<g id="graph0" class="graph" transform="scale(1 1) rotate(0) translate(4 382)">
<title>models_diagram</title>
<polygon fill="transparent" stroke="transparent" points="-4,4 -4,-382 915.074,-382 915.074,4 -4,4"/>
<!-- _diagram_info -->
<g id="node1" class="node">
<title>_diagram_info</title>
<text text-anchor="start" x="8" y="-342.6" font-family="Times,serif" font-size="13.00" fill="#000000">Models diagram</text>
<text text-anchor="start" x="8" y="-329.6" font-family="Times,serif" font-size="13.00" fill="#000000">Date: Sep 11 2017 &#45; 13:26</text>
<text text-anchor="start" x="8" y="-316.6" font-family="Times,serif" font-size="13.00" fill="#000000">Migration version: 20170911162349</text>
<text text-anchor="start" x="8" y="-303.6" font-family="Times,serif" font-size="13.00" fill="#000000">Generated by RailRoady 1.5.3</text>
<text text-anchor="start" x="8" y="-290.6" font-family="Times,serif" font-size="13.00" fill="#000000">http://railroady.prestonlee.com</text>
</g>
<!-- ApplicationRecord -->
<g id="node2" class="node">
<title>ApplicationRecord</title>
<ellipse fill="none" stroke="#000000" cx="302.2117" cy="-320.5" rx="77.2916" ry="18"/>
<text text-anchor="middle" x="302.2117" y="-316.3" font-family="Times,serif" font-size="14.00" fill="#000000">ApplicationRecord</text>
</g>
<!-- Gender -->
<g id="node3" class="node">
<title>Gender</title>
<path fill="none" stroke="#000000" d="M409.3494,-277.5C409.3494,-277.5 633.074,-277.5 633.074,-277.5 639.074,-277.5 645.074,-283.5 645.074,-289.5 645.074,-289.5 645.074,-351.5 645.074,-351.5 645.074,-357.5 639.074,-363.5 633.074,-363.5 633.074,-363.5 409.3494,-363.5 409.3494,-363.5 403.3494,-363.5 397.3494,-357.5 397.3494,-351.5 397.3494,-351.5 397.3494,-289.5 397.3494,-289.5 397.3494,-283.5 403.3494,-277.5 409.3494,-277.5"/>
<text text-anchor="middle" x="521.2117" y="-348.3" font-family="Times,serif" font-size="14.00" fill="#000000">Gender</text>
<polyline fill="none" stroke="#000000" points="397.3494,-341.5 645.074,-341.5 "/>
<text text-anchor="start" x="405.3494" y="-326.3" font-family="Times,serif" font-size="14.00" fill="#000000">id :integer</text>
<text text-anchor="start" x="405.3494" y="-312.3" font-family="Times,serif" font-size="14.00" fill="#000000">name :character varying</text>
<text text-anchor="start" x="405.3494" y="-298.3" font-family="Times,serif" font-size="14.00" fill="#000000">created_at :timestamp without time zone</text>
<text text-anchor="start" x="405.3494" y="-284.3" font-family="Times,serif" font-size="14.00" fill="#000000">updated_at :timestamp without time zone</text>
</g>
<!-- Song -->
<g id="node4" class="node">
<title>Song</title>
<path fill="none" stroke="#000000" d="M108.3494,-56.5C108.3494,-56.5 332.074,-56.5 332.074,-56.5 338.074,-56.5 344.074,-62.5 344.074,-68.5 344.074,-68.5 344.074,-158.5 344.074,-158.5 344.074,-164.5 338.074,-170.5 332.074,-170.5 332.074,-170.5 108.3494,-170.5 108.3494,-170.5 102.3494,-170.5 96.3494,-164.5 96.3494,-158.5 96.3494,-158.5 96.3494,-68.5 96.3494,-68.5 96.3494,-62.5 102.3494,-56.5 108.3494,-56.5"/>
<text text-anchor="middle" x="220.2117" y="-155.3" font-family="Times,serif" font-size="14.00" fill="#000000">Song</text>
<polyline fill="none" stroke="#000000" points="96.3494,-148.5 344.074,-148.5 "/>
<text text-anchor="start" x="104.3494" y="-133.3" font-family="Times,serif" font-size="14.00" fill="#000000">id :integer</text>
<text text-anchor="start" x="104.3494" y="-119.3" font-family="Times,serif" font-size="14.00" fill="#000000">name :character varying</text>
<text text-anchor="start" x="104.3494" y="-105.3" font-family="Times,serif" font-size="14.00" fill="#000000">duration :integer</text>
<text text-anchor="start" x="104.3494" y="-91.3" font-family="Times,serif" font-size="14.00" fill="#000000">gender_id :integer</text>
<text text-anchor="start" x="104.3494" y="-77.3" font-family="Times,serif" font-size="14.00" fill="#000000">created_at :timestamp without time zone</text>
<text text-anchor="start" x="104.3494" y="-63.3" font-family="Times,serif" font-size="14.00" fill="#000000">updated_at :timestamp without time zone</text>
</g>
<!-- Gender&#45;&gt;Song -->
<g id="edge1" class="edge">
<title>Gender&#45;&gt;Song</title>
<path fill="none" stroke="#286075" d="M428.2655,-273.5345C402.9614,-259.5624 375.989,-243.5393 352.2117,-227 330.746,-212.0687 308.7132,-194.2665 288.9482,-177.2392"/>
<ellipse fill="none" stroke="#286075" cx="431.8466" cy="-275.4972" rx="4" ry="4"/>
<polygon fill="#286075" stroke="#286075" points="288.7512,-177.0681 284.1557,-167.1115 284.9774,-173.788 281.2036,-170.5079 281.2036,-170.5079 281.2036,-170.5079 284.9774,-173.788 278.2516,-173.9044 288.7512,-177.0681 288.7512,-177.0681"/>
</g>
<!-- User -->
<g id="node5" class="node">
<title>User</title>
<path fill="none" stroke="#000000" d="M373.5769,-.5C373.5769,-.5 668.8464,-.5 668.8464,-.5 674.8464,-.5 680.8464,-6.5 680.8464,-12.5 680.8464,-12.5 680.8464,-214.5 680.8464,-214.5 680.8464,-220.5 674.8464,-226.5 668.8464,-226.5 668.8464,-226.5 373.5769,-226.5 373.5769,-226.5 367.5769,-226.5 361.5769,-220.5 361.5769,-214.5 361.5769,-214.5 361.5769,-12.5 361.5769,-12.5 361.5769,-6.5 367.5769,-.5 373.5769,-.5"/>
<text text-anchor="middle" x="521.2117" y="-211.3" font-family="Times,serif" font-size="14.00" fill="#000000">User</text>
<polyline fill="none" stroke="#000000" points="361.5769,-204.5 680.8464,-204.5 "/>
<text text-anchor="start" x="369.5769" y="-189.3" font-family="Times,serif" font-size="14.00" fill="#000000">role :integer</text>
<text text-anchor="start" x="369.5769" y="-175.3" font-family="Times,serif" font-size="14.00" fill="#000000">email :character varying</text>
<text text-anchor="start" x="369.5769" y="-161.3" font-family="Times,serif" font-size="14.00" fill="#000000">encrypted_password :character varying</text>
<text text-anchor="start" x="369.5769" y="-147.3" font-family="Times,serif" font-size="14.00" fill="#000000">reset_password_token :character varying</text>
<text text-anchor="start" x="369.5769" y="-133.3" font-family="Times,serif" font-size="14.00" fill="#000000">reset_password_sent_at :timestamp without time zone</text>
<text text-anchor="start" x="369.5769" y="-119.3" font-family="Times,serif" font-size="14.00" fill="#000000">remember_created_at :timestamp without time zone</text>
<text text-anchor="start" x="369.5769" y="-105.3" font-family="Times,serif" font-size="14.00" fill="#000000">sign_in_count :integer</text>
<text text-anchor="start" x="369.5769" y="-91.3" font-family="Times,serif" font-size="14.00" fill="#000000">current_sign_in_at :timestamp without time zone</text>
<text text-anchor="start" x="369.5769" y="-77.3" font-family="Times,serif" font-size="14.00" fill="#000000">last_sign_in_at :timestamp without time zone</text>
<text text-anchor="start" x="369.5769" y="-63.3" font-family="Times,serif" font-size="14.00" fill="#000000">current_sign_in_ip :inet</text>
<text text-anchor="start" x="369.5769" y="-49.3" font-family="Times,serif" font-size="14.00" fill="#000000">last_sign_in_ip :inet</text>
<text text-anchor="start" x="369.5769" y="-35.3" font-family="Times,serif" font-size="14.00" fill="#000000">created_at :timestamp without time zone</text>
<text text-anchor="start" x="369.5769" y="-21.3" font-family="Times,serif" font-size="14.00" fill="#000000">updated_at :timestamp without time zone</text>
<text text-anchor="start" x="369.5769" y="-7.3" font-family="Times,serif" font-size="14.00" fill="#000000">id :integer</text>
</g>
<!-- Gender&#45;&gt;User -->
<g id="edge2" class="edge">
<title>Gender&#45;&gt;User</title>
<path fill="none" stroke="#251c84" d="M515.2214,-267.1304C514.9083,-257.6067 514.692,-247.3364 514.5725,-236.7809"/>
<polygon fill="#251c84" stroke="#251c84" points="515.2302,-267.3651 511.1113,-277.528 515.4191,-272.3616 515.6081,-277.358 515.6081,-277.358 515.6081,-277.358 515.4191,-272.3616 520.1048,-277.1879 515.2302,-267.3651 515.2302,-267.3651"/>
<polygon fill="#251c84" stroke="#251c84" points="514.5709,-236.5881 518.9873,-226.5509 514.5292,-231.5883 514.4875,-226.5884 514.4875,-226.5884 514.4875,-226.5884 514.5292,-231.5883 509.9876,-226.626 514.5709,-236.5881 514.5709,-236.5881"/>
</g>
<!-- User&#45;&gt;Gender -->
<g id="edge3" class="edge">
<title>User&#45;&gt;Gender</title>
<path fill="none" stroke="#7ca448" d="M527.872,-234.819C527.7577,-246.0629 527.5344,-257.0176 527.2019,-267.1304"/>
<ellipse fill="none" stroke="#7ca448" cx="527.9048" cy="-230.5883" rx="4" ry="4"/>
<polygon fill="#7ca448" stroke="#7ca448" points="527.1932,-267.3651 522.3185,-277.1879 527.0042,-272.3616 526.8153,-277.358 526.8153,-277.358 526.8153,-277.358 527.0042,-272.3616 531.3121,-277.528 527.1932,-267.3651 527.1932,-267.3651"/>
</g>
<!-- User&#45;&gt;User -->
<g id="edge4" class="edge">
<title>User&#45;&gt;User</title>
<path fill="none" stroke="#9a61c6" d="M689.3182,-135.4287C695.3729,-129.6297 698.8464,-122.3201 698.8464,-113.5 698.8464,-104.6799 695.3729,-97.3703 689.3182,-91.5713"/>
<polygon fill="#9a61c6" stroke="#9a61c6" points="689.1092,-135.5837 678.3968,-137.9283 685.0937,-138.563 681.0782,-141.5423 681.0782,-141.5423 681.0782,-141.5423 685.0937,-138.563 683.7596,-145.1562 689.1092,-135.5837 689.1092,-135.5837"/>
<polygon fill="#9a61c6" stroke="#9a61c6" points="689.1092,-91.4163 683.7596,-81.8438 685.0937,-88.437 681.0782,-85.4577 681.0782,-85.4577 681.0782,-85.4577 685.0937,-88.437 678.3968,-89.0717 689.1092,-91.4163 689.1092,-91.4163"/>
</g>
<!-- UserSong -->
<g id="node6" class="node">
<title>UserSong</title>
<path fill="none" stroke="#000000" d="M675.3494,-263.5C675.3494,-263.5 899.074,-263.5 899.074,-263.5 905.074,-263.5 911.074,-269.5 911.074,-275.5 911.074,-275.5 911.074,-365.5 911.074,-365.5 911.074,-371.5 905.074,-377.5 899.074,-377.5 899.074,-377.5 675.3494,-377.5 675.3494,-377.5 669.3494,-377.5 663.3494,-371.5 663.3494,-365.5 663.3494,-365.5 663.3494,-275.5 663.3494,-275.5 663.3494,-269.5 669.3494,-263.5 675.3494,-263.5"/>
<text text-anchor="middle" x="787.2117" y="-362.3" font-family="Times,serif" font-size="14.00" fill="#000000">UserSong</text>
<polyline fill="none" stroke="#000000" points="663.3494,-355.5 911.074,-355.5 "/>
<text text-anchor="start" x="671.3494" y="-340.3" font-family="Times,serif" font-size="14.00" fill="#000000">id :integer</text>
<text text-anchor="start" x="671.3494" y="-326.3" font-family="Times,serif" font-size="14.00" fill="#000000">position :integer</text>
<text text-anchor="start" x="671.3494" y="-312.3" font-family="Times,serif" font-size="14.00" fill="#000000">song_id :integer</text>
<text text-anchor="start" x="671.3494" y="-298.3" font-family="Times,serif" font-size="14.00" fill="#000000">user_id :integer</text>
<text text-anchor="start" x="671.3494" y="-284.3" font-family="Times,serif" font-size="14.00" fill="#000000">created_at :timestamp without time zone</text>
<text text-anchor="start" x="671.3494" y="-270.3" font-family="Times,serif" font-size="14.00" fill="#000000">updated_at :timestamp without time zone</text>
</g>
</g>
</svg>
