<?xml version="1.0" encoding="UTF-8" standalone="no"?>
<!DOCTYPE svg PUBLIC "-//W3C//DTD SVG 1.1//EN"
 "http://www.w3.org/Graphics/SVG/1.1/DTD/svg11.dtd">
<!-- Generated by graphviz version 2.40.1 (20161225.0304)
 -->
<!-- Title: models_diagram Pages: 1 -->
<svg width="576pt" height="225pt"
 viewBox="0.00 0.00 576.20 225.00" xmlns="http://www.w3.org/2000/svg" xmlns:xlink="http://www.w3.org/1999/xlink">
<g id="graph0" class="graph" transform="scale(1 1) rotate(0) translate(4 221)">
<title>models_diagram</title>
<polygon fill="transparent" stroke="transparent" points="-4,4 -4,-221 572.1958,-221 572.1958,4 -4,4"/>
<!-- _diagram_info -->
<g id="node1" class="node">
<title>_diagram_info</title>
<text text-anchor="start" x="8" y="-202.6" font-family="Times,serif" font-size="13.00" fill="#000000">Models diagram</text>
<text text-anchor="start" x="8" y="-189.6" font-family="Times,serif" font-size="13.00" fill="#000000">Date: Sep 11 2017 &#45; 12:50</text>
<text text-anchor="start" x="8" y="-176.6" font-family="Times,serif" font-size="13.00" fill="#000000">Migration version: 20170911151419</text>
<text text-anchor="start" x="8" y="-163.6" font-family="Times,serif" font-size="13.00" fill="#000000">Generated by RailRoady 1.5.3</text>
<text text-anchor="start" x="8" y="-150.6" font-family="Times,serif" font-size="13.00" fill="#000000">http://railroady.prestonlee.com</text>
</g>
<!-- ApplicationRecord -->
<g id="node2" class="node">
<title>ApplicationRecord</title>
<ellipse fill="none" stroke="#000000" cx="302.2117" cy="-180.5" rx="77.2916" ry="18"/>
<text text-anchor="middle" x="302.2117" y="-176.3" font-family="Times,serif" font-size="14.00" fill="#000000">ApplicationRecord</text>
</g>
<!-- FinalUser -->
<g id="node3" class="node">
<title>FinalUser</title>
<ellipse fill="none" stroke="#000000" cx="523.2117" cy="-90" rx="44.9682" ry="18"/>
<text text-anchor="middle" x="523.2117" y="-85.8" font-family="Times,serif" font-size="14.00" fill="#000000">FinalUser</text>
</g>
<!-- Gender -->
<g id="node4" class="node">
<title>Gender</title>
<ellipse fill="none" stroke="#000000" cx="424.2117" cy="-90" rx="36.2645" ry="18"/>
<text text-anchor="middle" x="424.2117" y="-85.8" font-family="Times,serif" font-size="14.00" fill="#000000">Gender</text>
</g>
<!-- Song -->
<g id="node5" class="node">
<title>Song</title>
<ellipse fill="none" stroke="#000000" cx="424.2117" cy="-18" rx="28.0822" ry="18"/>
<text text-anchor="middle" x="424.2117" y="-13.8" font-family="Times,serif" font-size="14.00" fill="#000000">Song</text>
</g>
<!-- Gender&#45;&gt;Song -->
<g id="edge1" class="edge">
<title>Gender&#45;&gt;Song</title>
<path fill="none" stroke="#faad23" d="M424.2117,-63.8144C424.2117,-58.2775 424.2117,-52.4053 424.2117,-46.7785"/>
<ellipse fill="none" stroke="#faad23" cx="424.2117" cy="-67.8314" rx="4" ry="4"/>
<polygon fill="#faad23" stroke="#faad23" points="424.2118,-46.4133 428.7117,-36.4132 424.2117,-41.4133 424.2117,-36.4133 424.2117,-36.4133 424.2117,-36.4133 424.2117,-41.4133 419.7117,-36.4133 424.2118,-46.4133 424.2118,-46.4133"/>
</g>
<!-- User -->
<g id="node6" class="node">
<title>User</title>
<ellipse fill="none" stroke="#000000" cx="424.2117" cy="-180.5" rx="27" ry="18"/>
<text text-anchor="middle" x="424.2117" y="-176.3" font-family="Times,serif" font-size="14.00" fill="#000000">User</text>
</g>
<!-- Gender&#45;&gt;User -->
<g id="edge2" class="edge">
<title>Gender&#45;&gt;User</title>
<path fill="none" stroke="#14a22a" d="M430.4957,-117.8263C431.1158,-128.873 431.117,-141.5548 430.4993,-152.608"/>
<polygon fill="#14a22a" stroke="#14a22a" points="430.4946,-117.812 434.1977,-107.4903 430.1031,-112.8274 429.7115,-107.8427 429.7115,-107.8427 429.7115,-107.8427 430.1031,-112.8274 425.2253,-108.1952 430.4946,-117.812 430.4946,-117.812"/>
<polygon fill="#14a22a" stroke="#14a22a" points="430.4961,-152.6506 425.2291,-162.2688 430.1058,-157.6354 429.7154,-162.6201 429.7154,-162.6201 429.7154,-162.6201 430.1058,-157.6354 434.2017,-162.9714 430.4961,-152.6506 430.4961,-152.6506"/>
</g>
<!-- User&#45;&gt;FinalUser -->
<g id="edge4" class="edge">
<title>User&#45;&gt;FinalUser</title>
<path fill="none" stroke="#b6b49e" d="M448.161,-158.607C463.1088,-144.9425 482.3393,-127.3631 497.5918,-113.4202"/>
<polygon fill="#b6b49e" stroke="#b6b49e" points="447.9404,-158.8086 437.5233,-162.2344 444.2499,-162.1822 440.5595,-165.5558 440.5595,-165.5558 440.5595,-165.5558 444.2499,-162.1822 443.5957,-168.8771 447.9404,-158.8086 447.9404,-158.8086"/>
<polygon fill="#b6b49e" stroke="#b6b49e" points="497.7806,-113.2476 508.1977,-109.8218 501.4711,-109.874 505.1615,-106.5004 505.1615,-106.5004 505.1615,-106.5004 501.4711,-109.874 502.1253,-103.1791 497.7806,-113.2476 497.7806,-113.2476"/>
</g>
<!-- User&#45;&gt;Gender -->
<g id="edge3" class="edge">
<title>User&#45;&gt;Gender</title>
<path fill="none" stroke="#6d477f" d="M418.0238,-154.294C417.309,-142.8774 417.2759,-129.4826 417.9245,-117.8827"/>
<ellipse fill="none" stroke="#6d477f" cx="418.3803" cy="-158.6335" rx="4" ry="4"/>
<polygon fill="#6d477f" stroke="#6d477f" points="417.93,-117.8121 423.1981,-108.1946 418.3209,-112.8274 418.7118,-107.8427 418.7118,-107.8427 418.7118,-107.8427 418.3209,-112.8274 414.2256,-107.4909 417.93,-117.8121 417.93,-117.8121"/>
</g>
</g>
</svg>
