<?xml version="1.0" encoding="UTF-8" standalone="no"?>
<!DOCTYPE svg PUBLIC "-//W3C//DTD SVG 1.1//EN"
 "http://www.w3.org/Graphics/SVG/1.1/DTD/svg11.dtd">
<!-- Generated by graphviz version 2.40.1 (20161225.0304)
 -->
<!-- Title: models_diagram Pages: 1 -->
<svg width="764pt" height="430pt"
 viewBox="0.00 0.00 763.50 430.00" xmlns="http://www.w3.org/2000/svg" xmlns:xlink="http://www.w3.org/1999/xlink">
<g id="graph0" class="graph" transform="scale(1 1) rotate(0) translate(4 426)">
<title>models_diagram</title>
<polygon fill="transparent" stroke="transparent" points="-4,4 -4,-426 759.502,-426 759.502,4 -4,4"/>
<!-- _diagram_info -->
<g id="node1" class="node">
<title>_diagram_info</title>
<text text-anchor="start" x="8" y="-400.6" font-family="Times,serif" font-size="13.00" fill="#000000">Models diagram</text>
<text text-anchor="start" x="8" y="-387.6" font-family="Times,serif" font-size="13.00" fill="#000000">Date: Sep 11 2017 &#45; 12:50</text>
<text text-anchor="start" x="8" y="-374.6" font-family="Times,serif" font-size="13.00" fill="#000000">Migration version: 20170911151419</text>
<text text-anchor="start" x="8" y="-361.6" font-family="Times,serif" font-size="13.00" fill="#000000">Generated by RailRoady 1.5.3</text>
<text text-anchor="start" x="8" y="-348.6" font-family="Times,serif" font-size="13.00" fill="#000000">http://railroady.prestonlee.com</text>
</g>
<!-- ApplicationRecord -->
<g id="node2" class="node">
<title>ApplicationRecord</title>
<ellipse fill="none" stroke="#000000" cx="302.2117" cy="-378.5" rx="77.2916" ry="18"/>
<text text-anchor="middle" x="302.2117" y="-374.3" font-family="Times,serif" font-size="14.00" fill="#000000">ApplicationRecord</text>
</g>
<!-- Gender -->
<g id="node3" class="node">
<title>Gender</title>
<path fill="none" stroke="#000000" d="M409.3494,-335.5C409.3494,-335.5 633.074,-335.5 633.074,-335.5 639.074,-335.5 645.074,-341.5 645.074,-347.5 645.074,-347.5 645.074,-409.5 645.074,-409.5 645.074,-415.5 639.074,-421.5 633.074,-421.5 633.074,-421.5 409.3494,-421.5 409.3494,-421.5 403.3494,-421.5 397.3494,-415.5 397.3494,-409.5 397.3494,-409.5 397.3494,-347.5 397.3494,-347.5 397.3494,-341.5 403.3494,-335.5 409.3494,-335.5"/>
<text text-anchor="middle" x="521.2117" y="-406.3" font-family="Times,serif" font-size="14.00" fill="#000000">Gender</text>
<polyline fill="none" stroke="#000000" points="397.3494,-399.5 645.074,-399.5 "/>
<text text-anchor="start" x="405.3494" y="-384.3" font-family="Times,serif" font-size="14.00" fill="#000000">id :integer</text>
<text text-anchor="start" x="405.3494" y="-370.3" font-family="Times,serif" font-size="14.00" fill="#000000">name :character varying</text>
<text text-anchor="start" x="405.3494" y="-356.3" font-family="Times,serif" font-size="14.00" fill="#000000">created_at :timestamp without time zone</text>
<text text-anchor="start" x="405.3494" y="-342.3" font-family="Times,serif" font-size="14.00" fill="#000000">updated_at :timestamp without time zone</text>
</g>
<!-- User -->
<g id="node4" class="node">
<title>User</title>
<path fill="none" stroke="#000000" d="M373.5769,-72.5C373.5769,-72.5 668.8464,-72.5 668.8464,-72.5 674.8464,-72.5 680.8464,-78.5 680.8464,-84.5 680.8464,-84.5 680.8464,-286.5 680.8464,-286.5 680.8464,-292.5 674.8464,-298.5 668.8464,-298.5 668.8464,-298.5 373.5769,-298.5 373.5769,-298.5 367.5769,-298.5 361.5769,-292.5 361.5769,-286.5 361.5769,-286.5 361.5769,-84.5 361.5769,-84.5 361.5769,-78.5 367.5769,-72.5 373.5769,-72.5"/>
<text text-anchor="middle" x="521.2117" y="-283.3" font-family="Times,serif" font-size="14.00" fill="#000000">User</text>
<polyline fill="none" stroke="#000000" points="361.5769,-276.5 680.8464,-276.5 "/>
<text text-anchor="start" x="369.5769" y="-261.3" font-family="Times,serif" font-size="14.00" fill="#000000">role :integer</text>
<text text-anchor="start" x="369.5769" y="-247.3" font-family="Times,serif" font-size="14.00" fill="#000000">email :character varying</text>
<text text-anchor="start" x="369.5769" y="-233.3" font-family="Times,serif" font-size="14.00" fill="#000000">encrypted_password :character varying</text>
<text text-anchor="start" x="369.5769" y="-219.3" font-family="Times,serif" font-size="14.00" fill="#000000">reset_password_token :character varying</text>
<text text-anchor="start" x="369.5769" y="-205.3" font-family="Times,serif" font-size="14.00" fill="#000000">reset_password_sent_at :timestamp without time zone</text>
<text text-anchor="start" x="369.5769" y="-191.3" font-family="Times,serif" font-size="14.00" fill="#000000">remember_created_at :timestamp without time zone</text>
<text text-anchor="start" x="369.5769" y="-177.3" font-family="Times,serif" font-size="14.00" fill="#000000">sign_in_count :integer</text>
<text text-anchor="start" x="369.5769" y="-163.3" font-family="Times,serif" font-size="14.00" fill="#000000">current_sign_in_at :timestamp without time zone</text>
<text text-anchor="start" x="369.5769" y="-149.3" font-family="Times,serif" font-size="14.00" fill="#000000">last_sign_in_at :timestamp without time zone</text>
<text text-anchor="start" x="369.5769" y="-135.3" font-family="Times,serif" font-size="14.00" fill="#000000">current_sign_in_ip :inet</text>
<text text-anchor="start" x="369.5769" y="-121.3" font-family="Times,serif" font-size="14.00" fill="#000000">last_sign_in_ip :inet</text>
<text text-anchor="start" x="369.5769" y="-107.3" font-family="Times,serif" font-size="14.00" fill="#000000">created_at :timestamp without time zone</text>
<text text-anchor="start" x="369.5769" y="-93.3" font-family="Times,serif" font-size="14.00" fill="#000000">updated_at :timestamp without time zone</text>
<text text-anchor="start" x="369.5769" y="-79.3" font-family="Times,serif" font-size="14.00" fill="#000000">id :integer</text>
</g>
<!-- Gender&#45;&gt;User -->
<g id="edge2" class="edge">
<title>Gender&#45;&gt;User</title>
<path fill="none" stroke="#9d742c" d="M515.095,-324.952C514.9309,-319.7479 514.7988,-314.3345 514.6984,-308.7931"/>
<polygon fill="#9d742c" stroke="#9d742c" points="515.1038,-325.1938 510.9742,-335.3523 515.2875,-330.1904 515.4711,-335.187 515.4711,-335.187 515.4711,-335.187 515.2875,-330.1904 519.9681,-335.0217 515.1038,-325.1938 515.1038,-325.1938"/>
<polygon fill="#9d742c" stroke="#9d742c" points="514.6971,-308.6968 519.0518,-298.6327 514.6247,-303.6973 514.5523,-298.6979 514.5523,-298.6979 514.5523,-298.6979 514.6247,-303.6973 510.0528,-298.7631 514.6971,-308.6968 514.6971,-308.6968"/>
</g>
<!-- Song -->
<g id="node5" class="node">
<title>Song</title>
<ellipse fill="none" stroke="#000000" cx="727.2117" cy="-185.5" rx="28.0822" ry="18"/>
<text text-anchor="middle" x="727.2117" y="-181.3" font-family="Times,serif" font-size="14.00" fill="#000000">Song</text>
</g>
<!-- Gender&#45;&gt;Song -->
<g id="edge1" class="edge">
<title>Gender&#45;&gt;Song</title>
<path fill="none" stroke="#a3ae0b" d="M651.6,-331.1303C665.91,-322.067 679.2406,-311.4305 690.2117,-299 711.332,-275.0701 720.4314,-238.8578 724.3296,-213.8"/>
<ellipse fill="none" stroke="#a3ae0b" cx="647.9185" cy="-333.373" rx="4" ry="4"/>
<polygon fill="#a3ae0b" stroke="#a3ae0b" points="724.3406,-213.7192 730.1598,-204.4247 725.0211,-208.7657 725.7017,-203.8122 725.7017,-203.8122 725.7017,-203.8122 725.0211,-208.7657 721.2435,-203.1997 724.3406,-213.7192 724.3406,-213.7192"/>
</g>
<!-- User&#45;&gt;Gender -->
<g id="edge3" class="edge">
<title>User&#45;&gt;Gender</title>
<path fill="none" stroke="#10b3aa" d="M527.761,-306.7092C527.6571,-312.9779 527.5129,-319.0974 527.3283,-324.952"/>
<ellipse fill="none" stroke="#10b3aa" cx="527.8161" cy="-302.6975" rx="4" ry="4"/>
<polygon fill="#10b3aa" stroke="#10b3aa" points="527.3195,-325.1938 522.4552,-335.0217 527.1359,-330.1904 526.9522,-335.187 526.9522,-335.187 526.9522,-335.187 527.1359,-330.1904 531.4492,-335.3523 527.3195,-325.1938 527.3195,-325.1938"/>
</g>
<!-- FinalUser -->
<g id="node6" class="node">
<title>FinalUser</title>
<ellipse fill="none" stroke="#000000" cx="521.2117" cy="-18" rx="44.9682" ry="18"/>
<text text-anchor="middle" x="521.2117" y="-13.8" font-family="Times,serif" font-size="14.00" fill="#000000">FinalUser</text>
</g>
<!-- User&#45;&gt;FinalUser -->
<g id="edge4" class="edge">
<title>User&#45;&gt;FinalUser</title>
<path fill="none" stroke="#d5998a" d="M521.2117,-62.2406C521.2117,-56.6974 521.2117,-51.4538 521.2117,-46.6458"/>
<polygon fill="#d5998a" stroke="#d5998a" points="521.2118,-62.3824 516.7117,-72.3824 521.2117,-67.3824 521.2117,-72.3824 521.2117,-72.3824 521.2117,-72.3824 521.2117,-67.3824 525.7117,-72.3825 521.2118,-62.3824 521.2118,-62.3824"/>
<polygon fill="#d5998a" stroke="#d5998a" points="521.2118,-46.2818 525.7117,-36.2818 521.2117,-41.2818 521.2117,-36.2818 521.2117,-36.2818 521.2117,-36.2818 521.2117,-41.2818 516.7117,-36.2819 521.2118,-46.2818 521.2118,-46.2818"/>
</g>
</g>
</svg>
